<svg width="111" height="111" viewBox="0 0 111 111" fill="none" xmlns="http://www.w3.org/2000/svg">
<path d="M109.685 18.0517C109.419 33.0893 97.1536 45.1894 82.0521 45.1894H58.0858H57.5858V45.6894V76.6723H49.0623V28.1378V27.6378H48.5623H28.1378C13.0363 27.6378 0.770956 15.5376 0.504428 0.5H29.948C44.6749 0.5 56.6969 12.0189 57.5473 26.5142L57.5749 26.985H57.5858V28.1378V28.3346V29.7821L58.4792 28.6432C63.4492 22.3074 71.0962 18.1707 79.7418 18.0168V18.0517H80.2418H109.685Z" fill="#86D72F" stroke="#46A309"/>
<path d="M88.2383 109.65H18.4497C18.7171 90.6189 34.2297 75.2717 53.3244 75.2717C72.4586 75.2717 87.9709 90.6193 88.2383 109.65Z" fill="#6D4534" stroke="#46A309"/>
</svg>
