<svg width="80" height="80" viewBox="0 0 80 80" fill="none" xmlns="http://www.w3.org/2000/svg">
<path d="M49.8057 16.7624L49.7238 16.8032L49.645 16.8499C47.5559 18.0885 45.7775 19.7881 44.4456 21.819C43.1136 23.8498 42.2633 26.1581 41.9596 28.5677L41.7212 30.459L43.482 31.1895C45.0175 31.8265 46.3737 32.83 47.432 34.1121L48.7466 35.7048L50.5588 34.7144C57.4824 30.9309 64.4734 29.9366 69.5161 31.3032C72.0071 31.9782 73.969 33.2079 75.3107 34.9038C76.6436 36.5885 77.5 38.9034 77.5 42C77.5 50.4184 74.223 53.6186 71.5816 54.3575C68.7749 55.1425 65.147 53.673 63.2417 49.8136L63.1922 49.7133L63.1339 49.6178C61.8641 47.5374 60.1428 45.7691 58.0974 44.4437C56.0519 43.1182 53.7347 42.2696 51.317 41.9605L49.4332 41.7197L48.696 43.4699C48.0478 45.009 47.0404 46.3705 45.7582 47.4406L44.1868 48.7519L45.1621 50.5513C48.9503 57.5407 49.9324 64.5312 48.5585 69.5557C47.8801 72.037 46.6478 73.988 44.9494 75.3222C43.2609 76.6486 40.9411 77.5 37.84 77.5C29.5146 77.5 26.3384 74.2331 25.6043 71.5827C24.8229 68.7614 26.2936 65.1202 30.1543 63.198L30.2508 63.1499L30.3429 63.0936C32.3887 61.8444 34.1345 60.1604 35.4567 58.1609C36.7788 56.1615 37.6449 53.8957 37.9934 51.5242L38.2826 49.5567L36.4306 48.8324C34.8785 48.2253 33.5133 47.2206 32.4723 45.9191L31.1721 44.2936L29.338 45.2777C22.3414 49.0319 15.3771 50.0132 10.3818 48.6531C7.91612 47.9818 5.98184 46.761 4.65994 45.0763C3.34545 43.4011 2.5 41.0939 2.5 38C2.5 29.5643 5.75054 26.3604 8.35409 25.6197C11.1095 24.8358 14.7112 26.2764 16.6421 30.1543L16.6876 30.2458L16.7405 30.3333C17.9955 32.4095 19.7046 34.1745 21.7395 35.4955C23.7744 36.8166 26.0821 37.6595 28.4894 37.9609L30.4045 38.2007L31.1212 36.4087C31.7259 34.8968 32.7235 33.5739 34.0109 32.5768L35.6942 31.273L34.675 29.4036C30.912 22.5016 29.9253 15.5188 31.2883 10.4776C31.9618 7.98677 33.1871 6.02565 34.8736 4.68528C36.5481 3.35441 38.8467 2.5 41.92 2.5H42C50.4225 2.5 53.6199 5.77003 54.3576 8.40433C55.1415 11.2035 53.6752 14.8358 49.8057 16.7624ZM33.6249 41.2681L36.0769 40.7804L33.6249 41.2681C33.8757 42.5289 34.4948 43.6871 35.4038 44.5962C36.3128 45.5052 37.471 46.1243 38.7319 46.3751L39.2196 43.9231L38.7319 46.3751C39.9928 46.6259 41.2997 46.4972 42.4874 46.0052C43.6752 45.5132 44.6903 44.6801 45.4046 43.6112C46.1188 42.5423 46.5 41.2856 46.5 40C46.5 38.2761 45.8152 36.6228 44.5962 35.4038C43.3772 34.1848 41.7239 33.5 40 33.5C38.7144 33.5 37.4577 33.8812 36.3888 34.5954C35.3199 35.3097 34.4868 36.3248 33.9948 37.5126C33.5028 38.7003 33.3741 40.0072 33.6249 41.2681Z" stroke="black" stroke-width="5"/>
</svg>
