<svg width="38" height="38" viewBox="0 0 38 38" fill="none" xmlns="http://www.w3.org/2000/svg">
<path d="M24.4615 2.07401C24.1368 1.83972 24.1944 1.39581 24.2396 1.05466C24.7821 1.12864 25.3617 1.2725 25.748 1.69997C26.0358 2.02057 26.3523 2.36995 26.4303 2.80975C26.5701 3.40985 26.566 4.05516 26.8701 4.60594C27.0304 4.90599 27.3716 5.02519 27.6922 5.07451C28.1032 5.14028 28.5595 5.17727 28.8677 5.48554C29.2171 5.83491 29.5829 6.20073 29.772 6.6693C29.8583 6.87071 29.7884 7.12143 29.5747 7.21186C29.1555 7.37627 28.6951 7.27762 28.2594 7.24474C28.8595 8.0668 29.2212 9.06971 29.2623 10.0891C29.324 11.2523 29.0445 12.4031 28.6787 13.5006C28.2964 14.672 27.7908 15.8024 27.4661 16.9902C27.388 17.2492 27.3675 17.5246 27.2483 17.7671C25.7152 21.3307 24.1574 24.9107 22.0159 28.162C20.4992 30.5089 18.3989 32.486 15.9245 33.8013C14.9873 34.2945 13.9926 34.7138 12.9404 34.8946C12.5211 34.9604 12.0937 35.0015 11.6703 34.948C11.2963 34.8782 10.9222 34.7754 10.6016 34.5781C10.429 34.4795 10.281 34.2822 10.3879 34.0849C10.7948 33.0121 11.7114 32.2435 12.1923 31.2118C13.6268 28.536 15.5463 26.1644 17.1123 23.5626C17.7988 22.4487 18.3536 21.2526 18.9332 20.0812C20.5403 16.7724 22.1269 13.4513 23.6025 10.0849C24.0012 9.15191 24.4122 8.22299 24.704 7.24886C24.3752 7.42971 24.0012 7.57356 23.6189 7.54479C23.4915 7.54068 23.3476 7.47081 23.3147 7.33928C23.2942 7.12143 23.4381 6.93647 23.5573 6.76795C23.6271 6.89537 23.6765 7.068 23.8285 7.11321C24.0587 7.17898 24.2889 7.09677 24.5108 7.03101C24.7205 6.96936 24.9178 6.87071 25.1151 6.77206C25.0164 7.20775 24.8397 7.62289 24.6999 8.04214C24.3588 9.03272 23.9847 10.0069 23.623 10.9933C23.5655 11.1331 23.5079 11.2728 23.4463 11.4085C23.2202 11.914 23.0188 12.4278 22.8051 12.9375C22.653 13.3197 22.468 13.6856 22.3488 14.076C22.2173 14.4871 22.02 14.8734 21.8515 15.2721C21.609 15.8188 21.3706 16.3696 21.0952 16.8998C20.7787 17.4876 20.5074 18.0959 20.2074 18.6837C19.9895 19.1481 19.747 19.6044 19.5415 20.0729C19.2497 20.6936 18.9167 21.2896 18.5961 21.8897C18.329 22.3624 18.0988 22.8556 17.7905 23.3036C17.2562 24.1503 16.8 25.0505 16.2862 25.9095C15.1353 27.7592 13.7748 29.4731 12.6691 31.3515C12.3526 31.9064 11.8635 32.3216 11.4771 32.823C11.3004 33.0244 11.1154 33.2423 11.0291 33.5012C10.988 33.6492 10.9099 33.8259 11.0168 33.9657C11.2017 34.2246 11.5429 34.2616 11.8306 34.3274C12.2828 34.4178 12.7513 34.4178 13.2076 34.3726C14.0625 34.3068 14.8599 33.9616 15.6121 33.5711C17.9179 32.3257 19.9936 30.6199 21.5391 28.4908C22.3735 27.3687 23.0599 26.1479 23.6806 24.8943C24.0176 24.1791 24.3793 23.4721 24.6629 22.7282C25.189 21.5691 25.6617 20.3894 26.1796 19.2221C27.0592 17.241 28.0703 15.2927 28.6129 13.18C28.8924 12.1442 28.9993 11.0509 28.8184 9.99041C28.7198 9.12725 28.4197 8.30931 28.1197 7.49958C27.947 7.05567 27.7703 6.61587 27.573 6.1884C27.9553 6.55422 28.4074 6.9488 28.9664 6.97346C29.2212 6.9899 29.4391 6.84604 29.6446 6.7063C29.4596 6.23361 29.065 5.88012 28.6663 5.58008C28.1895 5.24303 27.5812 5.31702 27.0387 5.18549C26.7057 5.10739 26.5783 4.75802 26.5249 4.45797C26.4386 3.92775 26.3769 3.38929 26.1673 2.89195C25.9577 2.36995 25.5425 1.97125 25.1151 1.61776C24.9178 1.4698 24.7369 1.2725 24.4903 1.20674C24.33 1.18619 24.2766 1.37937 24.3382 1.49857C24.4821 1.84794 24.8109 2.07812 25.1438 2.22198C25.3206 2.30829 25.5384 2.37817 25.6329 2.56313C25.7439 2.77275 25.7234 3.01526 25.7522 3.24133C25.5014 3.45095 25.2425 3.70168 25.1726 4.03461C25.0616 4.51552 25.3535 5.00464 25.1726 5.47321C25.0493 5.83492 24.6753 5.99522 24.367 6.16374C24.3752 6.1473 24.3875 6.11852 24.3916 6.10619C24.63 5.8678 24.9342 5.65406 25.0287 5.31291C25.1151 4.92243 24.8356 4.55251 24.9178 4.16614C25.0123 3.73456 25.374 3.4304 25.4932 3.00704C25.5384 2.85496 25.4603 2.7111 25.3781 2.58779C25.0781 2.38639 24.7534 2.25897 24.4615 2.07401Z" fill="#000100" stroke="#000100" stroke-width="0.0229025"/>
<path d="M25.1644 4.03461C25.2343 3.70168 25.4891 3.45506 25.7439 3.24133C25.8261 3.4715 25.9494 3.69346 26.0111 3.93597C25.933 4.07983 25.8919 4.24424 25.8631 4.40454C25.8261 4.66349 25.5918 4.84845 25.5549 5.1074C25.559 5.28414 25.6782 5.428 25.7069 5.59652C25.5795 5.85547 25.2959 5.99111 25.0822 6.17196C24.7534 6.43502 24.3012 6.58299 24.1163 6.98991C24.2437 7.00224 24.3711 7.01457 24.5026 7.01457C24.2848 7.08444 24.0505 7.16254 23.8203 7.09677C23.6641 7.04745 23.6148 6.88304 23.549 6.75151C23.7833 6.47612 24.1121 6.30349 24.3916 6.07331L24.3793 6.10209C24.3711 6.11853 24.3588 6.1473 24.3547 6.15963C24.6629 5.99111 25.037 5.8308 25.1603 5.4691C25.3452 5.00464 25.0493 4.51141 25.1644 4.03461Z" fill="#54A61D" stroke="#54A61D" stroke-width="0.0229025"/>
<path d="M24.8355 9.75613C24.9136 9.60405 25.0616 9.5054 25.1972 9.41086C25.2507 9.51362 25.3247 9.62871 25.2959 9.74791C25.2425 10.2288 25.1767 10.7056 25.1397 11.1865C25.115 11.5236 24.9958 11.84 24.926 12.1648C24.8232 12.7361 24.6711 13.291 24.5191 13.8541C24.3834 14.6063 24.0587 15.3091 23.8285 16.0325C23.7463 16.3531 23.5572 16.6244 23.4545 16.9327C23.2531 17.5698 22.8996 18.137 22.6283 18.7453C22.3447 19.292 22.0652 19.8428 21.7611 20.3853C21.5432 20.7018 21.3952 21.0553 21.1692 21.3636C20.9472 21.6595 20.7951 22.0089 20.5485 22.2884C20.5485 22.3213 20.5567 22.387 20.5567 22.4199C20.2896 22.6706 20.0676 22.9584 19.8662 23.2666C19.6237 23.6489 19.3072 23.99 19.151 24.4175C18.9332 25.0053 18.5386 25.5067 18.1481 25.9876C17.8974 26.2877 17.7946 26.6699 17.6179 27.0111C17.4411 27.4016 17.1699 27.7551 17.1123 28.1907C16.7917 28.4209 16.5615 28.7662 16.2081 28.947C15.8628 29.1279 15.5381 29.3457 15.2257 29.5677C14.9298 29.7732 14.901 30.1555 14.7366 30.4514C14.6215 30.5418 14.4612 30.3815 14.4817 30.2623C14.4776 29.839 14.7407 29.4773 15.0366 29.1978C15.2709 28.9717 15.5956 28.8936 15.8587 28.7045C16.0354 28.5771 16.2492 28.5031 16.4177 28.3675C16.6684 28.0263 16.7301 27.5865 16.7917 27.1796C16.9356 26.5343 17.3096 25.9712 17.696 25.4451C17.7782 25.3547 17.7412 25.2272 17.7494 25.1204C17.8768 24.9601 18.0166 24.8039 18.0536 24.5943C18.1728 24.3189 18.3207 24.064 18.4564 23.7969C18.6989 23.2502 19.04 22.7528 19.3648 22.2473C19.5497 21.9555 19.8004 21.7129 19.969 21.4129C20.1005 21.1745 20.2855 20.9813 20.4499 20.7676C20.7417 20.336 21.0459 19.9167 21.3829 19.5222C21.4733 19.3742 21.4857 19.1974 21.535 19.033C21.8679 17.9849 22.2666 16.9368 22.9571 16.0654C23.3435 15.416 23.9231 14.894 24.2108 14.187C24.2601 14.0884 24.3259 13.9979 24.3834 13.9075C24.3094 13.8829 24.2272 13.85 24.1532 13.8829C24.2478 13.6157 24.1738 13.328 24.0916 13.0731C24.0176 12.8265 23.919 12.5881 23.8203 12.3497C23.845 12.3168 23.9025 12.2511 23.9313 12.2223C24.0875 11.54 24.1573 10.8125 24.5848 10.237C24.5684 10.2124 24.5273 10.163 24.5067 10.1343L24.5149 10.1261C24.6547 10.0438 24.7575 9.90821 24.8355 9.75613Z" fill="#54A61D" stroke="#54A61D" stroke-width="0.0229025"/>
<path d="M25.4603 7.70097C25.5713 7.53245 25.7686 7.29406 25.9947 7.42147C26.3358 7.63932 26.5208 8.01336 26.7551 8.32985C26.5372 8.58058 26.2783 8.79842 26.0769 9.06559C25.785 9.48895 25.6124 9.9904 25.522 10.5001C25.337 11.5071 25.448 12.5388 25.596 13.5417C25.6617 13.8952 25.5836 14.2692 25.3576 14.5528C24.9835 15.0091 24.5067 15.4036 24.2766 15.9626C24.1409 16.2956 24.2108 16.6614 24.2971 16.9943C24.367 17.2615 24.4286 17.5615 24.2807 17.8164C23.9395 18.4288 23.1832 18.6672 22.8585 19.2879C22.6448 19.7071 22.6982 20.1962 22.7434 20.6443C22.764 20.8457 22.7804 21.0923 22.5872 21.2197C22.2379 21.4622 21.8104 21.5526 21.4323 21.7335C21.087 21.8814 20.8322 22.1692 20.5568 22.4199C20.5568 22.387 20.5485 22.3212 20.5485 22.2884C20.7993 22.013 20.9514 21.6636 21.1692 21.3636C21.3994 21.0594 21.5432 20.7018 21.7611 20.3853C22.0652 19.8428 22.3406 19.2961 22.6283 18.7453C22.8996 18.137 23.2531 17.5698 23.4545 16.9327C23.5573 16.6244 23.7463 16.3449 23.8285 16.0325C24.0587 15.3091 24.3834 14.6063 24.5191 13.8541C24.6712 13.2992 24.8232 12.7361 24.926 12.1647C24.9959 11.84 25.111 11.5194 25.1397 11.1865C25.1767 10.7056 25.2425 10.2288 25.2959 9.7479C25.3247 9.62048 25.2507 9.51361 25.1973 9.41085C25.0616 9.50539 24.9137 9.60404 24.8356 9.75612C24.7575 9.9082 24.6547 10.0438 24.5109 10.1302C24.6629 9.73145 24.8315 9.33276 24.9465 8.92173C25.0657 8.49837 25.2507 8.09145 25.4603 7.70097Z" fill="#539A34" stroke="#539A34" stroke-width="0.0229025"/>
<path d="M22.3365 14.0637C22.6818 14.0555 23.0229 14.0267 23.3682 14.0431C23.6354 14.0555 23.9313 14.0883 24.1533 13.8911C24.2314 13.8541 24.3095 13.891 24.3834 13.9157C24.3177 14.0061 24.256 14.0925 24.2108 14.1952C23.9231 14.9022 23.3435 15.4242 22.9572 16.0736C22.2666 16.945 21.868 17.9931 21.535 19.0412C21.4857 19.2056 21.4734 19.3824 21.3829 19.5304C21.0418 19.9208 20.7335 20.3442 20.4499 20.7758C20.2855 20.9895 20.0964 21.1868 19.969 21.4211C19.8046 21.7252 19.5498 21.9636 19.3648 22.2555C19.036 22.7569 18.6989 23.2584 18.4564 23.805C18.3167 24.0681 18.1728 24.3271 18.0536 24.6024C18.0207 24.808 17.8769 24.9683 17.7494 25.1286C17.7453 25.2395 17.7782 25.3628 17.696 25.4533C17.3055 25.9753 16.9356 26.5425 16.7918 27.1878C16.7301 27.5947 16.6726 28.0304 16.4177 28.3757C16.2533 28.5154 16.0355 28.5853 15.8587 28.7127C15.5957 28.9018 15.271 28.9799 15.0367 29.206C14.7448 29.4896 14.4777 29.8472 14.4818 30.2705C14.4612 30.3979 14.6174 30.5541 14.7366 30.4596C14.901 30.1637 14.9298 29.7814 15.2257 29.5759C15.5422 29.3498 15.8669 29.132 16.2081 28.9552C16.5616 28.7744 16.7918 28.4291 17.1124 28.1989C17.0754 28.3839 17.0343 28.573 16.9397 28.7415C16.7095 29.1443 16.1916 29.2923 16.019 29.7362C15.8875 30.2623 16.1341 30.8131 15.9697 31.331C15.8669 31.557 15.5833 31.5036 15.3819 31.5159C15.086 31.4995 14.8394 31.6886 14.601 31.8365C14.0379 32.2188 13.483 32.6175 13.0062 33.1107C12.6815 33.4437 12.3321 33.7766 12.143 34.2041C12.4513 34.4137 12.8418 34.2698 13.1829 34.3561C12.7226 34.3973 12.2581 34.4014 11.806 34.3109C11.5183 34.2452 11.1812 34.2123 10.9921 33.9492C10.8812 33.8136 10.9634 33.6327 11.0045 33.4848C11.0168 33.6697 10.9551 33.9205 11.1524 34.0273C11.321 34.1301 11.5224 34.1589 11.7114 34.2C11.9416 33.5505 12.0115 32.8559 12.0937 32.1736C11.88 32.3873 11.6827 32.6093 11.4566 32.8107C11.843 32.3092 12.3321 31.8941 12.6486 31.3392C13.7543 29.4608 15.1148 27.7468 16.2656 25.8972C16.8781 25.7451 17.3713 25.2272 17.5604 24.6353C17.6878 24.2037 17.7988 23.7475 17.77 23.2913C18.0783 22.8432 18.3126 22.3541 18.5756 21.8773C18.8962 21.2772 19.2333 20.6771 19.521 20.0606C20.1581 19.4646 20.8322 18.8974 21.3377 18.1781C21.272 18.1616 21.2062 18.1452 21.1445 18.1329C21.0829 17.7177 21.1692 17.2944 21.0788 16.8833C21.3501 16.349 21.5885 15.7982 21.8351 15.2557C22.0077 14.8611 22.205 14.4747 22.3365 14.0637Z" fill="#539A34" stroke="#539A34" stroke-width="0.0229025"/>
<path d="M28.7814 10.9892C28.839 10.6521 28.7527 10.311 28.8102 9.97395C28.9911 11.0344 28.8801 12.1318 28.6047 13.1635C28.0621 15.2762 27.051 17.2245 26.1714 19.2056C25.6576 20.3689 25.1808 21.5526 24.6547 22.7117C24.704 22.3253 24.9548 22.0089 25.0288 21.6307C25.1151 21.1416 25.1562 20.6401 25.0616 20.151C25.0329 19.8181 24.8931 19.4893 24.9671 19.1604C25.111 18.8439 25.4727 18.7288 25.707 18.5028C26.2248 18.0095 26.6071 17.3889 26.903 16.7477C27.2483 15.8352 27.3141 14.8487 27.5484 13.9075C27.6758 13.3773 27.795 12.8224 28.1402 12.3867C28.2512 12.2182 28.4567 12.1771 28.6335 12.1236C28.6581 11.7373 28.7239 11.3673 28.7814 10.9892Z" fill="#539A34" stroke="#539A34" stroke-width="0.0229025"/>
<path d="M22.7927 12.9251C23.0065 12.4155 23.2161 11.9017 23.434 11.3961C23.5531 11.7208 23.6682 12.0414 23.8121 12.3579C23.9107 12.5963 24.0053 12.8388 24.0834 13.0813C24.1697 13.3403 24.2396 13.6239 24.145 13.8911C23.9313 14.0884 23.6312 14.0514 23.36 14.0431C23.0147 14.0267 22.6736 14.0555 22.3283 14.0637C22.4639 13.6732 22.6448 13.3033 22.7927 12.9251Z" fill="#2F8A0F" stroke="#2F8A0F" stroke-width="0.0229025"/>
<path d="M11.0168 33.4889C11.1113 33.2299 11.2881 33.0121 11.4648 32.8107C11.6909 32.6093 11.8882 32.3873 12.1019 32.1736C12.0197 32.8559 11.9498 33.5505 11.7196 34.2C11.5306 34.1589 11.3251 34.1342 11.1606 34.0273C10.9716 33.9205 11.0291 33.6739 11.0168 33.4889Z" fill="#2F8A0F" stroke="#2F8A0F" stroke-width="0.0229025"/>
<path d="M24.3259 1.49446C24.2642 1.37526 24.3177 1.18207 24.478 1.20263C24.7246 1.26017 24.9054 1.46568 25.1027 1.61365C25.5302 1.96714 25.9453 2.36584 26.155 2.88784C26.3646 3.38519 26.4262 3.92363 26.5126 4.45386C26.566 4.75391 26.6934 5.10329 27.0263 5.18138C27.5689 5.31291 28.1772 5.23892 28.654 5.57597C29.0486 5.88013 29.4432 6.23361 29.6323 6.70218C29.4308 6.83782 29.2089 6.98579 28.9541 6.96935C28.3951 6.94469 27.9429 6.5501 27.5607 6.18429C27.5155 6.13085 27.4661 6.08153 27.4209 6.0281C27.5648 6.52544 27.7908 7.01457 27.7785 7.54479C27.7703 7.68454 27.7251 7.87773 27.5607 7.89417C27.3716 7.87773 27.2195 7.73386 27.0921 7.60644C26.6975 7.17897 26.4303 6.64875 26.1961 6.11852C25.8343 6.34048 25.4809 6.57888 25.1068 6.77206C24.9095 6.87071 24.7081 6.96524 24.5026 7.031C24.3752 7.02689 24.2478 7.01456 24.1163 7.00634C24.3012 6.59942 24.7533 6.45146 25.0822 6.1884C25.3 6.01166 25.5795 5.87191 25.7069 5.61296C25.6823 5.44033 25.559 5.30058 25.5549 5.12384C25.5877 4.86078 25.8179 4.67992 25.8631 4.42098C25.8878 4.25657 25.9289 4.10037 26.0111 3.9524C25.9494 3.7099 25.8302 3.49205 25.7439 3.25777C25.7193 3.02759 25.7398 2.78508 25.6247 2.57957C25.5261 2.3905 25.3123 2.32473 25.1356 2.23842C24.7986 2.074 24.4738 1.83972 24.3259 1.49446ZM26.1508 5.39923C26.3153 5.53075 26.5824 5.58419 26.6482 5.80614C26.7386 6.0692 26.8167 6.32815 26.9195 6.58709C27.014 6.81316 26.9154 7.1091 27.1496 7.2694C27.1866 7.20775 27.2606 7.15843 27.2565 7.08033C27.2606 6.7885 27.2442 6.49256 27.1414 6.21717C27.0757 5.99522 26.9688 5.78148 26.9729 5.54719C27.6018 5.5513 27.9881 6.14319 28.5512 6.32815C28.6047 6.29116 28.6499 6.25416 28.7033 6.21717C28.3211 5.8678 27.8607 5.62118 27.3839 5.42388C27.1003 5.29647 26.7838 5.42389 26.492 5.34579C26.2783 5.28003 26.1591 5.07862 26.0275 4.92243C26.0152 5.09095 25.9988 5.29647 26.1508 5.39923Z" fill="#3AC20D" stroke="#3AC20D" stroke-width="0.0229025"/>
<path d="M26.1508 5.39923C25.9988 5.29648 26.0111 5.08685 26.0275 4.93066C26.1632 5.09096 26.2824 5.29237 26.492 5.35402C26.7838 5.43212 27.1003 5.3047 27.3839 5.43212C27.8607 5.62941 28.3252 5.87192 28.7033 6.2254C28.6499 6.26239 28.6047 6.29939 28.5512 6.33638C27.9881 6.15142 27.5977 5.55542 26.9729 5.55542C26.9688 5.78971 27.0757 6.00344 27.1414 6.2254C27.2442 6.50079 27.2606 6.79673 27.2565 7.08856C27.2606 7.16665 27.1825 7.22009 27.1496 7.27763C26.9154 7.11733 27.0181 6.81728 26.9195 6.59533C26.8126 6.34049 26.7345 6.07332 26.6482 5.81437C26.5824 5.5842 26.3235 5.53076 26.1508 5.39923Z" fill="#53A71A" stroke="#53A71A" stroke-width="0.0229025"/>
<path d="M25.1068 6.76383C25.485 6.56654 25.8385 6.33636 26.1961 6.1103C26.4262 6.64463 26.6934 7.16664 27.0921 7.59822C27.2195 7.72564 27.3716 7.8695 27.5607 7.88594C27.7292 7.87361 27.7744 7.68042 27.7785 7.53656C27.7867 7.01045 27.5648 6.51722 27.4209 6.01987C27.4661 6.07331 27.5113 6.12674 27.5607 6.17606C27.7539 6.60764 27.9347 7.04333 28.1073 7.48724C28.4115 8.29286 28.7074 9.11491 28.8061 9.97807C28.7485 10.3151 28.8349 10.6563 28.7773 10.9933C28.7198 11.3715 28.654 11.7414 28.6252 12.1236C28.4444 12.1812 28.243 12.2182 28.132 12.3867C27.7867 12.8224 27.6675 13.3773 27.5401 13.9075C27.3058 14.8488 27.2401 15.8352 26.8948 16.7477C26.5948 17.393 26.2207 18.0137 25.6987 18.5028C25.4603 18.733 25.1027 18.8522 24.9589 19.1604C24.8808 19.4934 25.0246 19.8263 25.0534 20.151C25.1479 20.6401 25.1027 21.1457 25.0205 21.6307C24.9465 22.0089 24.6958 22.3254 24.6465 22.7117C24.3588 23.4516 24.0053 24.1585 23.6641 24.8778C23.0435 26.1315 22.3571 27.3522 21.5227 28.4743C19.9772 30.6035 17.9015 32.3092 15.5956 33.5547C14.8435 33.9451 14.0378 34.2904 13.1911 34.3562C12.85 34.2698 12.4595 34.4137 12.1512 34.2041C12.3444 33.7725 12.6938 33.4396 13.0144 33.1107C13.4912 32.6175 14.0419 32.2147 14.6092 31.8366C14.8476 31.6886 15.0942 31.4995 15.3901 31.5159C15.5915 31.5036 15.871 31.5612 15.9779 31.331C16.1423 30.8131 15.8957 30.2623 16.0272 29.7362C16.1999 29.2923 16.7136 29.1402 16.9479 28.7415C17.0466 28.5771 17.0836 28.3839 17.1206 28.199C17.1781 27.7633 17.4494 27.4098 17.6261 27.0193C17.807 26.6823 17.9097 26.3 18.1563 25.9958C18.555 25.5149 18.9414 25.0135 19.1593 24.4257C19.3196 23.9941 19.6278 23.653 19.8744 23.2748C20.0717 22.9707 20.2978 22.6788 20.565 22.4281C20.8404 22.1774 21.0952 21.8897 21.4405 21.7417C21.8186 21.5608 22.2461 21.4704 22.5954 21.2279C22.7886 21.1005 22.7722 20.8539 22.7516 20.6525C22.7023 20.2003 22.653 19.7153 22.8667 19.2961C23.1997 18.6754 23.9477 18.437 24.2889 17.8246C24.4286 17.5698 24.3711 17.2656 24.3053 17.0025C24.2149 16.6655 24.1532 16.2997 24.2848 15.9709C24.515 15.4119 24.9959 15.0214 25.3658 14.561C25.5918 14.2774 25.6699 13.9034 25.6042 13.5499C25.4562 12.547 25.3452 11.5153 25.5302 10.5083C25.6206 9.99863 25.7891 9.50128 26.0851 9.07381C26.2865 8.80665 26.5413 8.59291 26.7633 8.33807C26.529 8.02158 26.344 7.64755 26.0029 7.4297C25.7768 7.30228 25.5795 7.54067 25.4685 7.70919C25.2548 8.09556 25.0698 8.50248 24.9548 8.92995C24.8397 9.34098 24.6711 9.73968 24.5191 10.1384L24.5108 10.1466C24.2313 10.4425 23.9847 10.7796 23.6271 10.9892C23.9888 10.0027 24.3629 9.0286 24.704 8.03802C24.8314 7.60644 25.0082 7.19952 25.1068 6.76383Z" fill="#2F8B0F" stroke="#2F8B0F" stroke-width="0.0229025"/>
<path d="M23.4422 11.3961C23.4997 11.2564 23.5614 11.1207 23.6189 10.981C23.9765 10.7714 24.2231 10.4343 24.5026 10.1384C24.5232 10.1672 24.5602 10.2124 24.5807 10.2411C24.1574 10.8207 24.0834 11.5523 23.9272 12.2264C23.8984 12.2552 23.845 12.325 23.8162 12.3538C23.6764 12.0414 23.5614 11.7208 23.4422 11.3961Z" fill="#529A34" stroke="#529A34" stroke-width="0.0229025"/>
<path d="M20.1992 18.6754C20.5033 18.0836 20.7705 17.4711 21.087 16.8916C21.1774 17.3026 21.0911 17.726 21.1527 18.1411C21.2185 18.1575 21.2802 18.1699 21.3459 18.1863C20.8445 18.9015 20.1663 19.4728 19.5292 20.0688C19.7429 19.592 19.9772 19.1358 20.1992 18.6754Z" fill="#2F8A10" stroke="#2F8A10" stroke-width="0.0229025"/>
<path d="M16.2738 25.8972C16.7917 25.0341 17.2439 24.138 17.7782 23.2913C17.807 23.7475 17.696 24.1956 17.5686 24.6354C17.3795 25.2272 16.8904 25.741 16.2738 25.8972Z" fill="#2F890F" stroke="#2F890F" stroke-width="0.0229025"/>
</svg>
