<svg width="55" height="80" viewBox="0 0 55 80" fill="none" xmlns="http://www.w3.org/2000/svg">
<path d="M27.5005 12.5002C19.2285 12.5002 12.5002 19.2285 12.5002 27.5005C12.5002 28.8818 13.619 30.0006 15.0003 30.0006C16.3816 30.0006 17.5003 28.8818 17.5003 27.5005C17.5003 21.9848 21.9879 17.5003 27.5005 17.5003C28.8818 17.5003 30.0006 16.3816 30.0006 15.0003C30.0006 13.619 28.8818 12.5002 27.5005 12.5002ZM15.0097 71.7467C15.0097 72.2389 15.155 72.7186 15.4284 73.128L19.2582 78.8844C19.7223 79.5812 20.5035 80 21.3395 80H33.66C34.4976 80 35.2788 79.5812 35.7413 78.8844L39.5711 73.128C39.843 72.7186 39.9883 72.2374 39.9898 71.7467L39.9977 64.9997H15.0034L15.0097 71.7467ZM27.5005 0C11.519 0 0 12.9643 0 27.5005C0 34.4335 2.57036 40.7586 6.80638 45.5915C9.40643 48.5588 13.4846 54.7792 14.9972 59.9918V60.0012H22.4973H21.5C21.4984 59.2558 21.3359 58.5 21.1008 57.7511C20.2274 54.9683 17.6486 47.6634 11.5 40.6477C8.29056 36.9867 5.51406 32.3428 5.5 27.5005C5.46875 15.9941 16.8316 5 27.5005 5C38.5289 5 48.8367 16.4722 48.8367 27.5005C48.8367 32.3397 46.0259 37.8609 42.8367 41.5C36.7257 48.4704 34.7242 54.9401 33.8367 57.7511C33.6003 58.5 33.5 59.2112 33.5 60L32.5053 60.0012H40.0055V59.9934C41.518 54.7792 45.5962 48.5588 48.1963 45.5931C52.4307 40.7586 55.0011 34.4335 55.0011 27.5005C55.0011 12.3127 42.6883 0 27.5005 0Z" fill="black"/>
</svg>
