<svg width="80" height="80" viewBox="0 0 80 80" fill="none" xmlns="http://www.w3.org/2000/svg">
<path d="M61.25 75C58.8364 75.1387 56.432 74.6018 54.3066 73.4498C52.1812 72.2977 50.4191 70.576 49.2179 68.478C48.0168 66.38 47.4242 63.9887 47.5067 61.5726C47.5892 59.1565 48.3435 56.8112 49.685 54.8L58.725 41.3455C59.0033 40.9315 59.3792 40.5922 59.8195 40.3577C60.2598 40.1231 60.7511 40.0004 61.25 40.0004C61.7489 40.0004 62.2401 40.1231 62.6804 40.3577C63.1207 40.5922 63.4966 40.9315 63.775 41.3455L72.65 54.5385C74.1178 56.7104 74.9333 59.257 75 61.8775C74.9108 65.4391 73.4136 68.8201 70.8363 71.2797C68.259 73.7394 64.8118 75.0772 61.25 75ZM61.25 46.55L53.911 57.468C53.0472 58.7234 52.559 60.1989 52.5035 61.7217C52.4481 63.2445 52.8275 64.7516 53.5976 66.0665C54.3676 67.3814 55.4964 68.4497 56.8516 69.1464C58.2068 69.843 59.7325 70.1391 61.25 70C63.4858 70.0775 65.6614 69.2665 67.3011 67.7444C68.9408 66.2223 69.9111 64.113 70 61.8775C69.942 60.2013 69.3945 58.5787 68.425 57.21L61.25 46.55Z" fill="black"/>
<path d="M27.5 40V27.5H30C32.6513 27.497 35.1931 26.4425 37.0678 24.5678C38.9425 22.6931 39.9971 20.1513 40 17.5V10H32.5C29.9403 10.0041 27.4806 10.9951 25.633 12.7667C24.3382 10.4163 22.4369 8.45601 20.1271 7.09001C17.8173 5.72402 15.1835 5.00229 12.5 5H5.00003V12.5C5.0044 16.4769 6.58615 20.2897 9.39825 23.1018C12.2104 25.9139 16.0231 27.4956 20 27.5H22.5V40H5.00003V45H40V40H27.5ZM32.5 15H35V17.5C34.9987 18.8257 34.4715 20.0967 33.5341 21.0341C32.5967 21.9715 31.3257 22.4987 30 22.5H27.5V20C27.5014 18.6743 28.0286 17.4033 28.966 16.4659C29.9034 15.5285 31.1744 15.0013 32.5 15ZM20 22.5C17.3488 22.497 14.807 21.4425 12.9323 19.5678C11.0575 17.6931 10.003 15.1513 10 12.5V10H12.5C15.1513 10.003 17.6931 11.0575 19.5678 12.9322C21.4425 14.8069 22.4971 17.3487 22.5 20V22.5H20Z" fill="black"/>
<path d="M5.00003 52.5H40V57.5H5.00003V52.5Z" fill="black"/>
<path d="M5.00003 65H40V70H5.00003V65Z" fill="black"/>
</svg>
