<svg width="80" height="80" viewBox="0 0 80 80" fill="none" xmlns="http://www.w3.org/2000/svg">
<path d="M65 32.5H75V37.5H65V32.5Z" fill="black"/>
<path d="M57.5002 18.9652L64.5711 11.8943L68.1063 15.4295L61.0354 22.5004L57.5002 18.9652Z" fill="black"/>
<path d="M57.4996 51.0355L61.0348 47.5004L68.1057 54.5712L64.5705 58.1064L57.4996 51.0355Z" fill="black"/>
<path d="M42.5 5H47.5V15H42.5V5Z" fill="black"/>
<path d="M45 20C44.1619 20.0054 43.3256 20.0807 42.5 20.225V25.3545C43.3148 25.13 44.1549 25.0109 45 25C47.6522 25 50.1957 26.0536 52.0711 27.9289C53.9464 29.8043 55 32.3478 55 35C55 37.6522 53.9464 40.1957 52.0711 42.0711C50.1957 43.9464 47.6522 45 45 45V50C48.9782 50 52.7936 48.4196 55.6066 45.6066C58.4196 42.7936 60 38.9782 60 35C60 31.0218 58.4196 27.2064 55.6066 24.3934C52.7936 21.5804 48.9782 20 45 20Z" fill="black"/>
<path d="M25 50.4597V17.5H20V50.4597C18.332 51.0495 16.9261 52.2099 16.0309 53.736C15.1357 55.262 14.8088 57.0553 15.108 58.7991C15.4072 60.5428 16.3132 62.1247 17.6659 63.265C19.0185 64.4054 20.7308 65.0308 22.5 65.0308C24.2692 65.0308 25.9815 64.4054 27.3342 63.265C28.6868 62.1247 29.5928 60.5428 29.892 58.7991C30.1912 57.0553 29.8643 55.262 28.9691 53.736C28.0739 52.2099 26.668 51.0495 25 50.4597Z" fill="black"/>
<path d="M22.5 75C19.0554 75.0034 15.6866 73.9891 12.8164 72.0845C9.94623 70.1799 7.70264 67.4699 6.36729 64.2947C5.03195 61.1194 4.66435 57.6205 5.31065 54.237C5.95694 50.8536 7.58833 47.7365 10 45.277V17.5C10 14.1848 11.317 11.0054 13.6612 8.66117C16.0054 6.31696 19.1848 5 22.5 5C25.8152 5 28.9946 6.31696 31.3389 8.66117C33.6831 11.0054 35 14.1848 35 17.5V45.277C37.4117 47.7365 39.0431 50.8536 39.6894 54.237C40.3357 57.6205 39.9681 61.1194 38.6327 64.2947C37.2974 67.4699 35.0538 70.1799 32.1836 72.0845C29.3135 73.9891 25.9446 75.0034 22.5 75ZM22.5 10C20.5116 10.0022 18.6052 10.7931 17.1991 12.1991C15.7931 13.6052 15.0022 15.5115 15 17.5V47.4585L14.17 48.2043C12.2822 49.8915 10.9513 52.1123 10.3535 54.5727C9.75563 57.033 9.91904 59.6169 10.8221 61.9824C11.7251 64.3478 13.3252 66.3832 15.4105 67.8193C17.4958 69.2553 19.9681 70.0242 22.5 70.0242C25.032 70.0242 27.5042 69.2553 29.5895 67.8193C31.6749 66.3832 33.2749 64.3478 34.178 61.9824C35.081 59.6169 35.2444 57.033 34.6466 54.5727C34.0487 52.1123 32.7178 49.8915 30.83 48.2043L30 47.4585V17.5C29.9978 15.5115 29.207 13.6052 27.8009 12.1991C26.3949 10.7931 24.4885 10.0022 22.5 10Z" fill="black"/>
</svg>
